<?xml version="1.0" encoding="utf-8" ?><svg xmlns="http://www.w3.org/2000/svg" xmlns:xlink="http://www.w3.org/1999/xlink" width="40" height="40" viewBox="0 0 40 40"><path transform="scale(0.0137363 0.0136799)" d="M1247.69 957.476C1277.65 963.669 1311.57 976.92 1343.28 983.914C1465 1010.77 1542.63 992.896 1657.96 959.396C1660.79 1043.44 1655.87 1131.87 1656.21 1216.26C1656.38 1259.81 1656.72 1303.28 1655.94 1346.88L1654.4 1440.82C1654.24 1449.61 1653.46 1455.04 1652.82 1463.3C1652.47 1467.88 1654.66 1474.37 1654.28 1481.87C1646.54 1489.76 1654.13 1486.04 1653.77 1494.9C1652.28 1531.27 1654.71 1567.9 1651.22 1604.15C1650.74 1609.16 1653.15 1618.1 1652.98 1624.03C1647.69 1836.83 1644.71 2049.68 1644.03 2262.55C1643.73 2314.58 1643.1 2366.61 1642.13 2418.63C1590.62 2419.33 1537.58 2417.11 1485.93 2416.49L1233.31 2414.71C1232.35 2396.05 1233.83 2362.27 1234.1 2342.27L1236.44 2184.09L1241.13 1679.99L1246.21 1160.01C1246.87 1119.48 1247.19 1078.96 1247.19 1038.43C1247.16 1013.82 1246.16 981.517 1247.69 957.476Z"/><path transform="scale(0.0137363 0.0136799)" d="M1453.44 31.231C1465.98 42.8051 1494.54 92.7278 1503.54 108.833C1594.28 271.113 1648.65 455.871 1668.69 640.503C1672.05 671.393 1677.11 705.622 1677.15 736.541C1667.92 738.205 1657.21 742.125 1647.84 744.75C1633.1 748.734 1618.29 752.465 1603.42 755.94C1564.61 764.977 1501.7 772.83 1462.03 774.173C1379.26 776.759 1308.55 760.233 1232.02 729.723C1245.99 526.501 1288.59 339.011 1380.28 156.215C1397.84 121.201 1430.19 61.4402 1453.44 31.231Z"/><path transform="scale(0.0137363 0.0136799)" d="M1680.86 1679.91C1699.72 1689.89 1716.81 1719.26 1729.75 1735.55C1764.78 1779.68 1799.21 1822.2 1836.16 1864.75C1866.09 1899.21 1893.75 1940.67 1922.74 1976.12C1961.84 2024.45 2002.65 2071.67 2039.55 2121.69C2041.13 2217.02 2034.82 2312.69 2036.31 2408.05C2036.38 2412.85 2037.45 2409 2034.88 2414.55C2036.52 2420.74 2034.81 2445.99 2033.62 2452.75C2016.57 2449.7 1978.94 2431.43 1961.6 2423.49L1865.28 2379.31C1803.48 2351.02 1735.52 2323.06 1675.45 2292.54C1673.12 2181.05 1676.18 2063.29 1677.56 1951.73L1680.05 1770.5C1680.4 1740.73 1679.81 1709.46 1680.86 1679.91Z"/><path transform="scale(0.0137363 0.0136799)" d="M1209.58 1690.26C1212.23 1694.11 1209.93 1762.63 1209.82 1772.67L1208.08 1958.02L1206.98 2176.38C1206.52 2208.85 1206.9 2251.01 1204.3 2282.84C1186.43 2289.98 1162.18 2303.23 1143.96 2311.7L971.338 2393.55C941.257 2408.01 910.336 2421.06 880.279 2435.58C866.04 2442.45 850.262 2449.07 836.863 2457.29L834.853 2455.85C833.862 2452.21 837.974 2389.01 838.284 2379.81L846.142 2103.63C863.919 2080.14 892.626 2051.2 912.247 2028.38C943.154 1992.43 974.686 1956.76 1005.94 1921.13C1057.11 1861.86 1109.05 1803.25 1161.73 1745.33C1177.03 1728.34 1194.69 1705.42 1209.58 1690.26Z"/><path transform="scale(0.0137363 0.0136799)" d="M1230.97 761.311C1239.86 763.139 1261.59 770.834 1271.56 773.921C1294.33 780.845 1317.34 786.933 1340.56 792.173C1453.26 816.975 1568.7 797.179 1678.12 766.367C1671.44 815.7 1666.48 865.251 1663.24 914.93C1662.71 923.529 1661.25 927.071 1652.6 930.347C1595.94 951.806 1536.98 962.554 1476.78 966.259C1397.69 971.127 1321.48 950.057 1246.81 926.788C1242.63 871.529 1237.35 816.358 1230.97 761.311Z"/><path transform="scale(0.0137363 0.0136799)" d="M1354.46 2447.67L1524.3 2449.47C1525.6 2505.33 1525.43 2597.65 1514.88 2651.27C1505.99 2696.44 1476.8 2776.17 1460.29 2819.77C1452.48 2839.66 1439.67 2865.41 1433.64 2885.03C1396.14 2806.64 1362.4 2706.97 1354.45 2620.07C1351.76 2590.64 1353.02 2550.76 1353.3 2520.99C1353.43 2507.39 1352.08 2458.24 1354.46 2447.67Z"/></svg>