<?xml version="1.0" encoding="utf-8" ?><svg xmlns="http://www.w3.org/2000/svg" xmlns:xlink="http://www.w3.org/1999/xlink" width="40" height="40" viewBox="0 0 40 40"><clipPath id="cl_3"><rect x="-1.1444092e-05" y="4.863739e-05" width="40" height="40"/></clipPath><g clip-path="url(#cl_3)"><path transform="matrix(0.0595238 0 0 0.0571429 -10.9524 -11.2)" d="M485.354 699.481C486.704 669.34 486.42 641.526 486.812 611.576L487.609 377.403C487.651 353.627 487.563 329.852 487.346 306.077C487.087 279.265 484.186 241.566 502.284 221.166C528.458 191.662 550.178 235.882 551.631 258.528C552.807 276.864 552.174 292.26 551.932 309.624C551.67 335.4 551.555 361.177 551.587 386.954L552.408 527.461C552.057 581.302 552.614 635.144 554.079 688.966C554.264 701.926 554.163 716.292 555.137 729.117L555.199 730.567L555.657 730.418C556.308 725.569 556.419 718.957 556.009 714.078C556.102 707.854 556.35 701.025 556.075 694.853C558.345 658.878 558.097 621.926 558.387 585.825L559.459 395.189C563.192 397.898 579.531 417.877 583.694 422.761L638.797 487.253L760.705 630.132L804.645 681.512C814.542 692.971 825.174 704.325 834.307 716.386C839.592 723.365 843.079 730.224 844.412 738.927C845.97 749.105 846.091 811.847 844.019 822.356C829.904 823.086 813.316 822.693 799.042 822.692L724.316 822.704L621.826 822.558C609.211 822.492 596.6 822.577 583.959 822.592C574.101 822.603 574.528 818.14 574.078 809.718C573.843 805.326 574.76 799.034 572.486 795.367C569.368 793.007 537.452 794.185 530.5 793.964C530.325 797.713 530.104 801.403 530.186 805.156C539.184 805.519 548.431 805.141 557.262 805.782C557.98 812.534 557.721 822.138 557.675 829.165C557.629 836.132 557.852 845.053 557.412 851.887C547.999 852.34 539.602 851.901 530.549 852.168C530.465 856.051 530.207 861.194 530.439 864.973C538.838 864.624 581.248 864.353 586.01 866.631L586.213 867.489C579.352 873.815 541.729 873.354 531.785 874.228C531.313 874.269 530.595 877.999 530.449 878.794C523.453 878.951 516.454 879.013 509.456 878.979C509.172 877.115 509.114 875.01 507.91 873.687C499.582 871.983 459.54 872.371 454.423 868.066C454.08 866.126 453.898 866.982 454.834 865.385C458.356 863.64 501.084 864.109 509.389 864.208C509.341 860.506 509.39 856.293 508.98 852.66C499.937 851.693 490.917 852.58 482.328 851.553C482.106 839.041 481.205 817.07 482.632 805.602C491.315 805.354 500.824 805.561 509.228 805.198C509.2 801.724 509.267 797.617 509.053 794.205C502.97 794.181 470.308 793.372 467.024 795.065C462.279 800.876 470.693 822.167 458.89 822.418C445.107 822.711 430.481 822.576 416.669 822.584L331.9 822.617L244.227 822.608C230.089 822.62 209.701 823.286 196.21 822.294C193.983 819.97 194.312 800.09 194.636 796.314C196.691 772.3 188.963 741.991 202.269 720.831C208.27 711.662 216.985 702.338 223.858 694.466C231.87 685.251 239.822 675.984 247.714 666.666L346.059 551.402L437.478 444.186L466.101 410.784C469.322 407.02 476.17 398.365 479.258 395.411C479.533 395.145 479.814 394.885 480.1 394.631C481.127 423.132 480.076 453.572 480.136 482.372L481.552 617.725C481.821 643.933 481.448 673.018 483.193 699.01C483.013 707.181 483.423 716.343 484.025 724.515L484.568 724.962C484.529 725.281 484.489 725.6 484.449 725.919C484.344 725.572 484.239 725.225 484.134 724.878L484.699 724.284C485.037 717.829 485.561 705.956 485.354 699.481Z"/><path fill="#151316" fill-opacity="0.027450981" transform="matrix(0.0595238 0 0 0.0571429 -10.9524 -11.2)" d="M483.193 699.01C483.245 695.413 483.41 691.818 483.688 688.231C485.514 691.104 484.749 696.847 485.354 699.481C485.561 705.956 485.037 717.829 484.699 724.284L484.134 724.878C484.239 725.225 484.344 725.572 484.449 725.919C484.489 725.6 484.529 725.281 484.568 724.962L484.025 724.515C483.423 716.343 483.013 707.181 483.193 699.01Z"/><path fill="#908E8B" fill-opacity="0.023529412" transform="matrix(0.0595238 0 0 0.0571429 -10.9524 -11.2)" d="M554.079 688.966L555.289 689.29C555.637 691.151 555.656 693.139 556.075 694.853C556.35 701.025 556.102 707.854 556.009 714.078C555.687 717.879 555.753 726.092 555.137 729.117C554.163 716.292 554.264 701.926 554.079 688.966Z"/><path transform="matrix(0.0595238 0 0 0.0571429 -10.9524 -11.2)" d="M556.009 714.078C556.419 718.957 556.308 725.569 555.657 730.418L555.199 730.567L555.137 729.117C555.753 726.092 555.687 717.879 556.009 714.078Z"/></g></svg>