<?xml version="1.0" encoding="utf-8" ?><svg xmlns="http://www.w3.org/2000/svg" xmlns:xlink="http://www.w3.org/1999/xlink" width="40" height="40" viewBox="0 0 40 40"><clipPath id="cl_4"><path d="M-3.43323e-05 40L-3.43323e-05 0L40 0L40 40L-3.43323e-05 40Z"/></clipPath><g clip-path="url(#cl_4)"><path transform="matrix(8.11024e-18 -0.13245 0.13245 8.11024e-18 -46.8875 136.291)" d="M751.121 356.888C768.601 361.785 794.719 385.838 806.401 399.796C824.095 420.938 836.983 446.382 853.507 468.734C876.175 499.395 898.62 530.155 921.039 560.989C927.326 569.637 933.464 578.428 939.657 587.14C942.738 591.515 944.992 601.673 946.46 607.267C943.863 609.657 938.233 613.302 935.111 615.448C928.751 619.676 922.445 623.984 916.192 628.369C913.971 626.781 902.838 619.112 901.699 617.519C872.253 575.865 846.155 531.799 817.612 489.421C799.318 462.262 777.066 437.822 764.157 407.49C757.81 392.576 751.4 373.159 751.121 356.888Z"/><path transform="matrix(8.11024e-18 -0.13245 0.13245 8.11024e-18 -46.8875 136.291)" d="M804.663 477.599C808.323 481.511 825.993 509.101 829.525 514.945C839.017 530.65 854.965 551.452 863.266 567.001C852.326 578.8 839.719 595.295 829.411 608.028C824.722 614.035 817.388 623.913 812.294 629.051C805.35 619.845 799.378 610.35 792.099 601.037L804.663 477.599Z"/><path transform="matrix(8.11024e-18 -0.13245 0.13245 8.11024e-18 -46.8875 136.291)" d="M845.169 450.212C883.016 458.904 924.868 471.3 962.966 481.039C968.253 486.761 979.315 503.864 983.753 510.85C979.135 512.943 971.25 515.214 966.205 516.829L906.863 535.995C895.671 520.889 885.149 504.688 873.621 489.449C864.727 477.692 852.749 462.407 845.169 450.212Z"/><path transform="matrix(8.11024e-18 -0.13245 0.13245 8.11024e-18 -46.8875 136.291)" d="M871.174 580.103C874.801 583.507 894.081 613.617 897.62 619.335C890.394 626.352 882.142 636.705 875.488 644.645C873.66 646.858 871.873 649.257 870.118 651.54C865.49 648.914 860.122 645.339 855.55 642.467C859.822 624.199 868.568 597.675 871.174 580.103Z"/><path transform="matrix(8.11024e-18 -0.13245 0.13245 8.11024e-18 -46.8875 136.291)" d="M917.757 549.073C938.259 552.302 961.141 552.892 981.064 556.108C981.82 560.841 983.622 567.381 984.794 572.171L975.054 575.603C964.606 579.059 954.234 582.74 943.945 586.643C941.486 583.615 936.56 576.166 934.115 572.623C929.231 565.546 921.701 556.349 917.757 549.073Z"/><path transform="matrix(8.11024e-18 -0.13245 0.13245 8.11024e-18 -46.8875 136.291)" d="M962.514 464.595C969.097 468.669 998.907 503.238 999.04 510.198L997.725 511.274C994.894 512.903 993.645 513.791 990.653 513.262C985.647 508.39 969.327 483.038 965.771 475.674C964.275 472.576 963.223 468.042 962.514 464.595Z"/><path transform="matrix(8.11024e-18 -0.13245 0.13245 8.11024e-18 -46.8875 136.291)" d="M777.555 592.398C789.597 599.663 803.531 623.663 812.055 635.457C813.049 636.833 811.775 638.573 811.132 639.774C809.635 640.966 806.8 643.47 805.101 641.522C795.849 630.917 779.342 605.415 777.555 592.398Z"/></g></svg>