<?xml version="1.0" encoding="utf-8" ?><svg xmlns="http://www.w3.org/2000/svg" xmlns:xlink="http://www.w3.org/1999/xlink" width="40" height="40" viewBox="0 0 40 40"><clipPath id="cl_4"><path d="M0.000154495 40.1899L0.000154495 0.000110626L40.2088 0.000110626L40.2088 40.1899L0.000154495 40.1899Z"/></clipPath><g clip-path="url(#cl_4)"><path fill="#201F20" transform="matrix(5.38493e-18 -0.0879426 0.0922216 5.64694e-18 3.41235 47.1373)" d="M299.673 61.9769C311.061 61.8985 322.45 61.9101 333.838 62.0118C338.96 95.393 344.289 128.742 349.826 162.057C362.51 162.562 377.588 162.172 390.486 162.169L470.357 162.229C470.02 178.794 470.437 195.437 470.238 212.006C461.857 211.294 447.263 211.748 438.501 211.75L382.884 211.771C372.763 211.805 359.492 212.189 349.67 211.758C349.525 213.946 348.727 218.273 348.359 220.615L345.399 238.973L336.044 297.225C335.338 302.148 334.51 307.133 333.954 312.065L299.504 312.015L296.208 243.042C295.699 232.709 294.94 222.345 294.685 211.983C284.528 211.575 273.885 211.749 263.687 211.753L226.82 211.733C209.315 211.864 194.104 212.049 176.654 210.412C176.767 209.531 176.799 208.653 176.82 207.767C177.166 192.988 176.728 178.19 176.921 163.415C183.387 163.073 189.807 162.316 196.358 162.25C215.578 162.059 234.869 162.147 254.088 162.154L279.989 162.155C284.504 162.15 290.214 161.986 294.66 162.233C294.597 154.572 295.451 143.51 295.856 135.669L298.134 90.9825L299.101 71.205C299.188 69.3669 299.314 63.5303 299.673 61.9769Z"/><path fill="#201F20" transform="matrix(5.38493e-18 -0.0879426 0.0922216 5.64694e-18 3.41235 47.1373)" d="M90.5452 123.475C97.2092 123.424 104.945 123.189 111.52 123.539C112.926 126.95 116.655 133.692 118.411 137.171L134.204 168.449C146.818 166.52 159.492 165.009 172.206 163.92C171.991 173.444 172.176 183.339 172.139 192.893C172.117 198.515 171.991 204.556 172.126 210.123C160.532 208.64 145.446 207.702 134.245 205.3C133.393 207.084 132.512 208.854 131.603 210.61L119.832 233.797C117.082 239.167 113.936 244.967 111.483 250.427C104.608 250.616 97.317 250.499 90.4153 250.492C90.0316 237.501 88.5972 224.007 88.0978 210.987C87.9294 206.595 87.3671 201.841 87.4964 197.507C85.6207 197.357 82.7001 196.765 80.6221 196.51C80.4731 190.246 80.4208 183.981 80.4653 177.715C82.8029 177.177 84.9487 176.765 87.3108 176.343C88.2936 158.715 89.3717 141.092 90.5452 123.475Z"/><path fill="#201F20" transform="matrix(5.38493e-18 -0.0879426 0.0922216 5.64694e-18 3.41235 47.1373)" d="M474.664 162.267C480.803 162.042 489.797 162.956 496.122 164.451C507.237 167.276 522.608 171.802 529.672 181.57C535.389 189.476 526.322 196.756 520.141 200.411C506.521 208.754 490.456 211.325 474.792 211.829C474.937 201.414 474.969 190.997 474.887 180.581C474.853 174.806 474.966 167.943 474.664 162.267Z"/></g></svg>